<svg width="16" height="16" viewBox="0 0 16 16" fill="none" xmlns="http://www.w3.org/2000/svg">
<path fill-rule="evenodd" clip-rule="evenodd" d="M15.0011 9.96708C15.9354 9.73348 15.9354 9.34808 15.0011 9.1145L12.9341 8.60065C11.9998 8.36708 11.0422 7.40944 10.8086 6.47515L10.2948 4.40805C10.0612 3.47377 9.67579 3.47377 9.44222 4.40805L8.92838 6.47515C8.69481 7.40944 7.73719 8.36708 6.80292 8.60065L4.73585 9.1145C3.80159 9.34808 3.80159 9.73348 4.73585 9.96708L6.80292 10.4808C7.73719 10.7144 8.69481 11.672 8.92838 12.6063L9.44222 14.6734C9.67579 15.6077 10.0612 15.6077 10.2948 14.6734L10.8086 12.6063C11.0422 11.672 11.9998 10.7144 12.9341 10.4808L15.0011 9.96708Z" fill="white"/>
</svg>
