<svg width="16" height="16" viewBox="0 0 16 16" fill="none" xmlns="http://www.w3.org/2000/svg">
<path fill-rule="evenodd" clip-rule="evenodd" d="M6.97883 4.19773C7.28247 4.09262 7.28247 3.90576 6.97883 3.78898L5.33218 3.15834C5.04022 3.05323 4.70155 2.71455 4.58477 2.41091L3.95414 0.764237C3.84903 0.460587 3.66218 0.460587 3.54539 0.764237L2.91476 2.41091C2.80966 2.70287 2.47099 3.04155 2.16735 3.15834L0.520697 3.78898C0.217059 3.89409 0.217059 4.08094 0.520697 4.19773L2.16735 4.82837C2.45931 4.93348 2.79798 5.27215 2.91476 5.5758L3.54539 7.22247C3.6505 7.52611 3.83735 7.52611 3.95414 7.22247L4.58477 5.5758C4.68987 5.28383 5.02854 4.94515 5.33218 4.82837L6.97883 4.19773Z" fill="white"/>
</svg>
