<svg width="16" height="16" viewBox="0 0 16 16" fill="none" xmlns="http://www.w3.org/2000/svg">
<g clip-path="url(#clip0_287_10)">
<path fill-rule="evenodd" clip-rule="evenodd" d="M6.97883 4.19773C7.28247 4.09262 7.28247 3.90576 6.97883 3.78898L5.33218 3.15834C5.04022 3.05323 4.70155 2.71455 4.58477 2.41091L3.95414 0.764237C3.84903 0.460587 3.66218 0.460587 3.54539 0.764237L2.91476 2.41091C2.80966 2.70287 2.47099 3.04155 2.16735 3.15834L0.520697 3.78898C0.217059 3.89409 0.217059 4.08094 0.520697 4.19773L2.16735 4.82837C2.45931 4.93348 2.79798 5.27215 2.91476 5.5758L3.54539 7.22247C3.6505 7.52611 3.83735 7.52611 3.95414 7.22247L4.58477 5.5758C4.68987 5.28383 5.02854 4.94515 5.33218 4.82837L6.97883 4.19773ZM15.0022 9.96705C15.9365 9.73345 15.9365 9.34805 15.0022 9.11447L12.9352 8.60062C12.0009 8.36705 11.0433 7.40941 10.8097 6.47512L10.2959 4.40802C10.0623 3.47374 9.67694 3.47374 9.44337 4.40802L8.92953 6.47512C8.69596 7.40941 7.73834 8.36705 6.80407 8.60062L4.737 9.11447C3.80274 9.34805 3.80274 9.73345 4.737 9.96705L6.80407 10.4808C7.73834 10.7144 8.69596 11.672 8.92953 12.6063L9.44337 14.6734C9.67694 15.6077 10.0623 15.6077 10.2959 14.6734L10.8097 12.6063C11.0433 11.672 12.0009 10.7144 12.9352 10.4808L15.0022 9.96705Z" fill="white"/>
</g>
<defs>
<clipPath id="clip0_287_10">
<rect width="16" height="16" fill="white"/>
</clipPath>
</defs>
</svg>
